<svg enable-background="new 0 0 32 32" viewBox="0 0 32 32" xmlns="http://www.w3.org/2000/svg">
<path d="m20 24v5" style="fill:none;stroke:#f0f0f0;stroke-width:2;stroke-linecap:round;stroke-linejoin:round;stroke-miterlimit:10"/>
<path d="m18.8 11.2c-1.1.2-2 0-2.4-.7s-.1-1.7.6-2.5c-.9-.9-1.9-1.5-3.1-1.8-.3 1-1 1.8-1.8 1.8s-1.5-.7-1.8-1.8c-1.3.4-2.4 1-3.2 1.8.7.8 1 1.8.6 2.5s-1.4.9-2.4.7c-.2.6-.3 1.2-.3 1.8s.1 1.2.2 1.8c1.1-.2 2 0 2.4.7s.1 1.7-.6 2.5c.9.9 1.9 1.5 3.1 1.8.3-1 1-1.8 1.8-1.8s1.5.7 1.8 1.8c1.2-.3 2.3-.9 3.1-1.8-.7-.8-1-1.8-.6-2.5s1.4-.9 2.4-.7c.2-.6.2-1.2.2-1.8s.1-1.2 0-1.8z" style="fill:none;stroke:#f0f0f0;stroke-width:2;stroke-linecap:round;stroke-linejoin:round;stroke-miterlimit:10"/>
<path style="fill:#f0f0f0" d="m12 14c-.1 0-.3 0-.4-.1s-.2-.1-.3-.2-.2-.2-.2-.3-.1-.3-.1-.4 0-.3.1-.4.1-.2.2-.3c.4-.4 1-.4 1.4 0 .1.1.2.2.2.3s.1.3.1.4 0 .3-.1.4-.1.2-.2.3c-.2.2-.4.3-.7.3z"/>
<g style="fill:none;stroke:#f0f0f0;stroke-width:2;stroke-linecap:round;stroke-linejoin:round;stroke-miterlimit:10">
	<path d="m10 19.7v7.3"/>
	<path d="m19 24h4c1.1 0 2-.9 2-2v-4h3l-3-6c0-5-4-9-9-9-3 0-5.7 1.5-7.3 3.8"/>
</g>
</svg>
