<svg viewBox="0 0 128 128" xmlns="http://www.w3.org/2000/svg"><path d="m5.13072 7.7845h16.60238a3.07654 3.07654 0 0 1 3.07655 3.0765v52.37046a3.07679 3.07679 0 0 1 -3.07679 3.07679h-16.60186a3.07658 3.07658 0 0 1 -3.07658-3.07658v-52.37084a3.07633 3.07633 0 0 1 3.0763-3.07633z" fill="#1d75b8"/><path d="m115.31875 83.47646h-30.796l.075.24807 1.28651 4.13647 1.25191 4.02115 3.74424 12.04033 1.82305 5.873a9.0735 9.0735 0 0 1 .2423.92306c.00577.00577.00577.00577 0 .01155a10.599 10.599 0 0 1 .25962 2.35958 10.79762 10.79762 0 0 1 -.17307 1.9327 11.089 11.089 0 0 1 -20.71146 3.2769l-29.96524-47.07659a29.83166 29.83166 0 0 0 -10.14224-10.09611.02121.02121 0 0 0 -.01732-.00577 4.07245 4.07245 0 0 1 -2.0769-3.5308v-45.73244a4.025 4.025 0 0 1 2.782-3.83393q.1377-.04447.27959-.07923c.27691-.06764 14.262-2.65269 14.262-2.65269l8.49274-.965a79.2599 79.2599 0 0 1 8.9486-.50681h37.17781a12.02688 12.02688 0 0 1 11.77656 9.5861l12.10716 58.41664c0 8.22691-6.7961 11.20958-10.62686 11.65382z" fill="#ffffff"/></svg>