<svg viewBox="0 0 128 128" xmlns="http://www.w3.org/2000/svg"><path d="m5.0226 61.68751h16.63287a3.0822 3.0822 0 0 1 3.0822 3.0822v52.4666a3.08244 3.08244 0 0 1 -3.08244 3.08244h-16.63238a3.08223 3.08223 0 0 1 -3.08223-3.08223v-52.467a3.082 3.082 0 0 1 3.08198-3.08201z" fill="#BD34E0"/>
<path d="m115.413 44.48777h-30.85257l.07514-.24853 1.28888-4.14411 1.25421-4.02854 3.75112-12.06244 1.8264-5.88383a9.09017 9.09017 0 0 0 .24274-.92475c.00579-.00579.00579-.00579 0-.01157a10.6185 10.6185 0 0 0 .2601-2.36392 10.81745 10.81745 0 0 0 -.17339-1.93625 11.10941 11.10941 0 0 0 -20.74949-3.28292l-30.02028 47.16315a29.88645 29.88645 0 0 1 -10.16086 10.11465.02125.02125 0 0 1 -.01736.00579 4.07993 4.07993 0 0 0 -2.08071 3.53723v45.81648a4.03238 4.03238 0 0 0 2.78707 3.841q.138.04455.2801.07937c.27742.06777 14.28821 2.65756 14.28821 2.65756l8.50834.9668a79.40545 79.40545 0 0 0 8.965.50774h37.24609a12.049 12.049 0 0 0 11.79826-9.60378l12.12938-58.5239c0-8.242-6.80859-11.23017-10.64638-11.67523z" fill="#BD34E0"/>
</svg>