<svg xmlns="http://www.w3.org/2000/svg" viewBox="0 0 24 24"><path d="M 12 0 C 10.875 0 9.9666676 0.2000237 9.2597656 0.59765625 C 8.5528636 0.9952888 8 1.6805557 8 2.5 C 8 3.3194443 8.5528636 4.0047112 9.2597656 4.4023438 C 9.9666676 4.7999763 10.875 5 12 5 C 13.125 5 14.033332 4.7999763 14.740234 4.4023438 C 15.447136 4.0047112 16 3.3194443 16 2.5 C 16 1.6805557 15.447136 0.9952888 14.740234 0.59765625 C 14.033332 0.2000237 13.125 0 12 0 z M 12 2 C 12.875 2 13.466668 2.1749763 13.759766 2.3398438 C 13.899894 2.4186661 13.954913 2.4706744 13.980469 2.5 C 13.954913 2.5293256 13.899894 2.5813339 13.759766 2.6601562 C 13.466668 2.8250238 12.875 3 12 3 C 11.125 3 10.533332 2.8250237 10.240234 2.6601562 C 10.100106 2.5813339 10.045087 2.5293256 10.019531 2.5 C 10.045087 2.4706744 10.100106 2.4186661 10.240234 2.3398438 C 10.533332 2.1749762 11.125 2 12 2 z M 4.3730469 4.3671875 C 3.0124219 4.5009375 1.9899062 5.761625 2.0039062 9.265625 C 2.0459062 13.296625 4 17.721 4 23 C 6.257 22.206 7.9474844 20.215469 8.6464844 17.480469 L 8.875 15.875 L 4 11 L 8.7695312 6.2304688 C 7.4330312 5.2264688 5.7336719 4.2334375 4.3730469 4.3671875 z M 19.101562 4.3730469 C 17.84427 4.4810581 16.394312 5.34375 15.21875 6.21875 L 20 11 L 15.125 15.875 L 15.388672 17.720703 C 16.124672 20.327703 17.769984 22.23 19.958984 23 C 19.958984 17.721 21.959953 13.306391 22.001953 9.2753906 C 22.017141 5.3423906 20.718082 4.2341753 19.101562 4.3730469 z M 9 8 L 6 11 L 9 14 L 9 8 z M 15 8 L 15 14 L 18 11 L 15 8 z M 11 10 L 11 13 L 10 13 L 10 14 L 11 14 L 11 22 L 12 24 L 13 22 L 13 14 L 14 14 L 14 13 L 13 13 L 13 10 L 11 10 z"></path></svg>