<svg xmlns="http://www.w3.org/2000/svg" viewBox="0 0 30 30" fill="#9036FE">    <path d="M 11 2 C 10.141 2 10.564 3.747 10 4 C 10 4 8.9 3 7 3 C 7 3.717 8 4.472 8 5 C 8 5.528 5 4.875 5 6 C 5 8.176 11.418266 6.5313281 11.947266 11.361328 C 10.456266 9.7383281 8.454 9 7 9 C 5.699 9 4.0039063 9.674 4.0039062 11 C 4.0039062 12.24 6.8533594 11.777984 9.5683594 12.583984 C 9.9483594 12.640984 10.321969 12.697 10.667969 12.75 C 11.148969 12.823 11.569438 12.887594 11.898438 12.933594 C 12.857437 13.068594 13.514188 13.544891 13.992188 14.087891 C 13.992188 12.801891 13.993953 10.549 14.001953 10 C 14.102953 5.623 17.448953 3.9255781 19.001953 3.2675781 C 19.000953 2.4915781 17.836 2 17 2 C 15.169 2 14.913 4 14 4 C 13.087 4 12.375 2 11 2 z M 20 5 C 18.672 5 16 6.3327813 16 10.300781 C 16 11.391781 15.998047 12.766563 15.998047 14.101562 C 16.476047 13.552563 17.134563 13.069594 18.101562 12.933594 C 18.341562 12.899594 18.646656 12.854687 18.972656 12.804688 C 19.256656 12.519687 19.606406 12.243563 20.066406 11.976562 C 22.003406 10.854563 24 11.103 24 10 C 24 9.037 22.787781 9.3623125 22.425781 8.9453125 C 22.063781 8.5283125 21.846906 8 21.253906 8 C 20.377906 8 19.406125 9.1054844 19.078125 8.7714844 C 18.749125 8.4374844 21.009766 6.598 21.009766 6 C 21.009766 5.402 20.646 5 20 5 z M 4 14 C 2 14 2 15.291 2 16 C 2 19 5.442 25 10 25 C 14.056 25 13 22 15 22 C 17 22 15.944 25 20 25 C 24.558 25 28 19 28 16 C 28 15.291 28 14 26 14 C 24 14 20.031859 14.683062 18.380859 14.914062 C 16.729859 15.145062 16.948 18 15 18 C 13.052 18 13.270141 15.146062 11.619141 14.914062 C 9.9681406 14.682063 6 14 4 14 z M 8 18 C 9.561 18 12 18.53 12 20 C 12 20.975 11.134 22 10 22 C 6.99 22 6 19.952 6 19 C 6 18.354 6.439 18 8 18 z M 22 18 C 23.561 18 24 18.354 24 19 C 24 19.952 23.01 22 20 22 C 18.866 22 18 20.975 18 20 C 18 18.53 20.439 18 22 18 z"></path></svg>