<svg viewBox="0 0 50 50" xmlns="http://www.w3.org/2000/svg">
    <path style="fill:#f00" d="m23.488281 4.007813c-.195312-.011719-.394531 0-.597656.035156-1.15625.207031-1.941406 1.15625-2.128906 2.21875v.003906l-2.714844 15.390625-3.292969 5.832031v.003907c-.175781.316406-.507812.507812-.867187.507812h-3.886719c0-.550781-.449219-1-1-1h-6c-.550781 0-1 .449219-1 1v17c0 .550781.449219 1 1 1h6c.550781 0 1-.449219 1-1v-3h6.125c3.878906 0 7.207031-2.792969 7.878906-6.609375l.996094-5.636719.996094 5.636719c.671875 3.816406 4 6.609375 7.878906 6.609375h6.125v3c0 .550781.449219 1 1 1h6c.550781 0 1-.449219 1-1v-17c0-.550781-.449219-1-1-1h-6c-.550781 0-1 .449219-1 1h-3.886719c-.359375 0-.691406-.191406-.867187-.507812 0 0 0 0 0-.003907l-3.292969-5.832031-2.714844-15.390625c0-.003906 0-.003906 0-.003906-.1875-1.0625-.972656-2.011719-2.128906-2.21875-.785156-.140625-1.539062.09375-2.109375.550781-.421875-.339844-.945312-.558594-1.511719-.585937zm-.246093 2.003906c.453125-.082031.757812.21875.757812.621094v17.277343l-1.964844 11.132813c-.503906 2.875-2.988281 4.957031-5.910156 4.957031h-6.125v-10h3.886719c1.078125 0 2.082031-.585937 2.613281-1.527344h-.003906l3.375-5.980468c.054687-.097657.09375-.207032.113281-.320313l2.746094-15.5625c.054687-.316406.289062-.558594.511719-.597656zm3.515625 0c.222656.039062.457031.28125.511718.597656l2.746094 15.5625c.019531.113281.058594.222656.113281.320313l3.375 5.980468h-.003906c.53125.941407 1.535156 1.527344 2.613281 1.527344h3.886719v10h-6.125c-2.921875 0-5.40625-2.082031-5.910156-4.957031l-1.964844-11.132813v-17.277343c0-.402344.304688-.703125.757813-.621094z"/>
</svg>