<svg height="64" viewBox="0 0 64 64" width="64" xmlns="http://www.w3.org/2000/svg"><g fill="none" fill-rule="evenodd"><path d="m22.9515789 58.9997467c-1.5436582 0-3.0838797-.1423337-4.6-.4257518-10.5436742-2.0860879-18.17922764-11.0558751-18.3515789-21.558327 0-7.8479874 3.99473684-12.5520522 7.55368421-16.7124311 3.55894739-4.1603789 6.34315789-7.4461326 4.84210529-12.88299142-.122494-.47291622.0651611-.97072659.4724328-1.25326681.4072716-.28254023.9504832-.2917607 1.3675672-.02321308 4.0208331 2.65798005 7.1594096 6.40429871 9.0305263 10.77916351 0 0 0 .1418311.2663158.1654696.1721867-.0051921.3201728-.1207838.3631579-.2836622 1.2772162-5.0988022.5787645-10.47862747-1.9610527-15.10501199-.2132333-.41630168-.1563639-.91603333.1452632-1.27647989.3065228-.3574677.7996271-.50560738 1.2589474-.37821626 4.3165521 1.46103088 8.2221232 3.88988194 11.4031579 7.09155492 5.108421 4.82225732 11.2578947 14.04127872 11.2578947 29.80816922-.0050908 6.5496881-3.0170352 12.7522239-8.2073684 16.9015392-4.179856 3.3555103-9.4298155 5.1784317-14.8410527 5.1534551z" fill="#F1961C" fill-rule="nonzero" transform="translate(9 2)"/><g fill="#fff"><rect height="21" rx="7.5" width="15" x="24" y="37"/><circle cx="31.5" cy="28.5" r="6.5"/></g></g></svg>