<svg xmlns="http://www.w3.org/2000/svg" viewBox="0 0 128 128">
    <path fill="#3B7ADB" d="M64,9l-43.2,9.8V56c0,28,14,44.5,37.2,60l3.3,2.2c0.8,0.5,1.7,0.8,2.7,0.8v-0.1c0.9,0,1.9-0.3,2.7-0.8l3.3-2.2c23.3-15.5,37.2-32,37.2-60V18.6L64,9z"></path>
    <path fill="#fff" d="M64 64v44.4l.6-.4c18.3-12.2 30.1-24.2 32.5-44H64zM64 28.9c-11.2 0-22.3 1.1-33.6 3.5V56c0 2.8.2 5.5.5 8H64V28.9z"></path>
    <path fill="#3B7ADB" d="M64,122c-1.5,0-3-0.5-4.3-1.3l-3.3-2.2c-20-13.4-38.6-30.2-38.6-62.5V18.8c0-1.4,1-2.6,2.3-2.9l43.2-9.8c0.4-0.1,0.9-0.1,1.3,0l43.2,9.6c1.4,0.3,2.3,1.5,2.3,2.9v37.3c0,32.3-18.5,49.1-38.6,62.5l-3.3,2.2c-1,0.6-2,1.1-3.2,1.2C64.8,121.9,64.4,122,64,122z M23.8,21.2V56c0,27.8,14.4,43.1,35.9,57.5l3.3,2.2c0.1,0.1,0.3,0.2,0.4,0.2c0.2,0,0.4-0.1,0.6-0.1c0.4,0,0.7-0.1,1-0.3l3.3-2.2c21.5-14.4,35.9-29.6,35.9-57.5V21L64,12.1L23.8,21.2z"></path>
</svg>