<svg height="120" viewBox="0 0 120 120" width="120" xmlns="http://www.w3.org/2000/svg"><g fill="none"><g fill="#3b7adb" transform="translate(13 2)"><path d="m47 3-43.2 9.8v37.2c0 28 14 44.5 37.2 60l3.3 2.2c.8.5 1.7.8 2.7.8v-.1c.9 0 1.9-.3 2.7-.8l3.3-2.2c23.3-15.5 37.2-32 37.2-60v-37.3z"/><path d="m47 116c-1.5 0-3-.5-4.3-1.3l-3.3-2.2c-20-13.4-38.6-30.2-38.6-62.5v-37.2c0-1.4 1-2.6 2.3-2.9l43.2-9.8c.4-.1.9-.1 1.3 0l43.2 9.6c1.4.3 2.3 1.5 2.3 2.9v37.3c0 32.3-18.5 49.1-38.6 62.5l-3.3 2.2c-1 .6-2 1.1-3.2 1.2-.2.1-.6.2-1 .2zm-40.2-100.8v34.8c0 27.8 14.4 43.1 35.9 57.5l3.3 2.2c.1.1.3.2.4.2.2 0 .4-.1.6-.1.4 0 .7-.1 1-.3l3.3-2.2c21.5-14.4 35.9-29.6 35.9-57.5v-34.8l-40.2-8.9z"/></g><path d="m30.9909333 0c-3.4877929 0-6.3038598.71675159-8.49544 2.14160156s-3.9056013 3.8803897-3.9056013 6.81673177 1.7140211 5.39188177 3.9056013 6.81673197c2.1915802 1.4248498 5.0076471 2.1416014 8.49544 2.1416014s6.3038585-.7167516 8.4954387-2.1416014c2.1915802-1.4248502 3.9056026-3.8803899 3.9056026-6.81673197s-1.7140224-5.3918818-3.9056026-6.81673177c-2.1915802-1.42484997-5.0076458-2.14160156-8.4954387-2.14160156zm0 7.16666667c2.7127278 0 4.5470526.6269984 5.4557327 1.21777361.4344333.28244658.6050065.46880965.6842367.57389305-.0792302.1050834-.2498034.29144648-.6842367.57389305-.9086801.59077552-2.7430049 1.21777362-5.4557327 1.21777362s-4.5470526-.6269984-5.4557327-1.21777362c-.4344333-.28244657-.6050065-.46880965-.6842368-.57389305.0792303-.1050834.2498035-.29144647.6842368-.57389305.9086801-.59077556 2.7430049-1.21777361 5.4557327-1.21777361zm-23.64554005 8.48242183c-4.21829169.4792709-7.38835654 4.9967344-7.3449529 17.5527344.13021094 14.4444167 6.1884104 30.2984271 6.1884104 49.2148438 6.99728755-2.8451667 12.23822925-9.9779028 14.40531125-19.7783195l.7084578-5.7529305-15.11376905-17.46875 14.78678835-17.0908202c-4.1434979-3.5976666-9.4119542-7.1560288-13.63024585-6.676758zm45.66223095.0209962c-3.8979325.3870402-8.3931798 3.4783528-12.037728 6.6137695l14.8231196 17.1328125-15.113769 17.46875.8174518 6.6137691c2.2817916 9.34175 7.3826871 16.1583142 14.169157 18.9174809 0-18.9164167 6.2035248-34.7354323 6.3337357-49.1798504.0470867-14.09325-3.9803343-18.0643548-8.9919671-17.5667316zm-31.3174719 12.996582-9.3007809 10.75 9.3007809 10.75zm18.601562 0v21.5l9.3007809-10.75zm-12.4010413 7.1666666v10.75h-3.1002603v3.5833334h3.1002603v28.6666666l3.1002603 7.1666667 3.1002603-7.1666667v-28.6666666h3.1002603v-3.5833334h-3.1002603v-10.75z" fill="#fff" transform="translate(29 13)"/></g></svg>